<?xml version="1.0" encoding="UTF-8" standalone="no"?> <svg width="60" height="60" viewBox="0 0 60 60" fill="none" xmlns="http://www.w3.org/2000/svg">
<g clip-path="url(#clip0)">
<path d="M30.0004 9.75919C27.8302 9.76017 25.709 10.4046 23.9049 11.6109C22.1008 12.8172 20.6949 14.5313 19.8649 16.5365C19.0348 18.5418 18.8179 20.7481 19.2415 22.8765C19.6652 25.005 20.7103 26.9601 22.2449 28.4947C23.7795 30.0293 25.7346 31.0744 27.8631 31.4981C29.9915 31.9217 32.1978 31.7048 34.203 30.8747C36.2082 30.0447 37.9224 28.6387 39.1287 26.8347C40.335 25.0306 40.9794 22.9094 40.9804 20.7392C40.9779 17.8279 39.8202 15.0365 37.7616 12.9779C35.703 10.9193 32.9117 9.7617 30.0004 9.75919V9.75919ZM30.0004 29.7092C28.2253 29.7082 26.4904 29.1809 25.015 28.1938C23.5396 27.2068 22.39 25.8045 21.7117 24.1642C21.0333 22.5238 20.8566 20.7191 21.2038 18.9783C21.5511 17.2376 22.4068 15.6388 23.6626 14.3844C24.9185 13.1299 26.5182 12.276 28.2594 11.9307C30.0005 11.5853 31.805 11.7641 33.4446 12.4443C35.0842 13.1245 36.4852 14.2756 37.4706 15.7521C38.456 17.2286 38.9814 18.9641 38.9804 20.7392C38.9791 23.1195 38.0322 25.4018 36.3481 27.084C34.6641 28.7662 32.3807 29.7105 30.0004 29.7092V29.7092ZM50.1204 52.2492C49.8288 52.5166 49.4781 52.7113 49.097 52.8175C48.7158 52.9238 48.315 52.9385 47.9271 52.8605C47.5392 52.7826 47.1752 52.6141 46.8647 52.3689C46.5542 52.1236 46.3061 51.8085 46.1404 51.4492C44.4204 47.7692 40.0304 41.5992 30.0004 41.5992C27.2892 41.5918 24.6118 42.2011 22.1708 43.3809C19.7298 44.5607 17.589 46.2801 15.9104 48.4092C15.746 48.6174 15.5056 48.7517 15.2421 48.7827C14.9786 48.8136 14.7136 48.7386 14.5054 48.5742C14.2972 48.4098 14.1629 48.1693 14.1319 47.9059C14.101 47.6424 14.176 47.3774 14.3404 47.1692C16.2073 44.8042 18.5868 42.894 21.2995 41.5827C24.0123 40.2713 26.9873 39.5931 30.0004 39.5992C41.5504 39.5992 46.4004 47.2992 47.9504 50.5992C47.9822 50.6761 48.0326 50.7438 48.0973 50.7962C48.1619 50.8486 48.2386 50.884 48.3204 50.8992C48.4019 50.916 48.4862 50.9129 48.5662 50.8903C48.6463 50.8676 48.7197 50.8261 48.7804 50.7692C52.0742 47.8061 54.6141 44.1006 56.1898 39.9598C57.7654 35.819 58.3312 31.3623 57.8404 26.9592C57.4369 23.2774 56.3071 19.7122 54.5165 16.4699C52.7259 13.2276 50.31 10.3727 47.4086 8.07042C44.5073 5.76812 41.1781 4.06414 37.6137 3.05713C34.0494 2.05011 30.3207 1.76006 26.6435 2.20376C22.9664 2.64745 19.4137 3.81608 16.1912 5.64201C12.9687 7.46794 10.1403 9.91489 7.86986 12.8412C5.59939 15.7676 3.93189 19.1152 2.96387 22.6903C1.99586 26.2655 1.74655 29.9971 2.23039 33.6692C2.79951 37.9778 4.36352 42.0948 6.79866 45.6945C9.23381 49.2942 12.4733 52.2777 16.2607 54.4092C20.0482 56.5406 24.2797 57.7613 28.6204 57.9748C32.9612 58.1883 37.2921 57.3887 41.2704 55.6392C41.3906 55.586 41.52 55.557 41.6514 55.5539C41.7827 55.5507 41.9134 55.5734 42.036 55.6208C42.1586 55.6682 42.2706 55.7392 42.3658 55.8299C42.4609 55.9205 42.5372 56.029 42.5904 56.1492C42.6436 56.2693 42.6726 56.3988 42.6757 56.5302C42.6789 56.6615 42.6561 56.7922 42.6088 56.9148C42.5614 57.0374 42.4904 57.1494 42.3997 57.2445C42.3091 57.3397 42.2006 57.416 42.0804 57.4692C35.1667 60.5215 27.357 60.858 20.2063 58.4117C13.0557 55.9654 7.08861 50.9158 3.49324 44.2683C-0.10213 37.6208 -1.06206 29.863 0.804578 22.5396C2.67122 15.2162 7.22749 8.8645 13.5662 4.74906C19.9049 0.633627 27.5611 -0.943591 35.0103 0.331447C42.4595 1.60648 49.1552 5.64024 53.7644 11.6296C58.3735 17.6189 60.5579 25.1244 59.8826 32.6517C59.2074 40.179 55.722 47.1759 50.1204 52.2492V52.2492Z" fill="url(#paint0_linear)"/>
</g>
<defs>
<linearGradient id="paint0_linear" x1="0.0026626" y1="29.9993" x2="60.0028" y2="29.9993" gradientUnits="userSpaceOnUse">
<stop stop-color="#17A6D7"/>
<stop offset="1" stop-color="#9D31FE"/>
</linearGradient>
<clipPath id="clip0">
<rect width="60" height="60" fill="white"/>
</clipPath>
</defs>
</svg>
